<svg width="524" height="27" viewBox="0 0 524 27" fill="none" xmlns="http://www.w3.org/2000/svg">
<path d="M6.798 21.176C5.62467 21.176 4.50267 21 3.432 20.648C2.36133 20.2813 1.518 19.812 0.902 19.24L1.716 17.524C2.30267 18.0373 3.05067 18.4627 3.96 18.8C4.86933 19.1373 5.81533 19.306 6.798 19.306C7.69267 19.306 8.41867 19.2033 8.976 18.998C9.53333 18.7927 9.944 18.514 10.208 18.162C10.472 17.7953 10.604 17.3847 10.604 16.93C10.604 16.402 10.428 15.9767 10.076 15.654C9.73867 15.3313 9.29133 15.0747 8.734 14.884C8.19133 14.6787 7.59 14.5027 6.93 14.356C6.27 14.2093 5.60267 14.0407 4.928 13.85C4.268 13.6447 3.65933 13.388 3.102 13.08C2.55933 12.772 2.11933 12.3613 1.782 11.848C1.44467 11.32 1.276 10.6453 1.276 9.824C1.276 9.032 1.48133 8.306 1.892 7.646C2.31733 6.97133 2.96267 6.436 3.828 6.04C4.708 5.62933 5.82267 5.424 7.172 5.424C8.06667 5.424 8.954 5.54133 9.834 5.776C10.714 6.01067 11.4767 6.348 12.122 6.788L11.396 8.548C10.736 8.108 10.0393 7.79267 9.306 7.602C8.57267 7.39667 7.86133 7.294 7.172 7.294C6.30667 7.294 5.59533 7.404 5.038 7.624C4.48067 7.844 4.07 8.13733 3.806 8.504C3.55667 8.87067 3.432 9.28133 3.432 9.736C3.432 10.2787 3.60067 10.7113 3.938 11.034C4.29 11.3567 4.73733 11.6133 5.28 11.804C5.83733 11.9947 6.446 12.1707 7.106 12.332C7.766 12.4787 8.426 12.6473 9.086 12.838C9.76067 13.0287 10.3693 13.278 10.912 13.586C11.4693 13.894 11.9167 14.3047 12.254 14.818C12.5913 15.3313 12.76 15.9913 12.76 16.798C12.76 17.5753 12.5473 18.3013 12.122 18.976C11.6967 19.636 11.0367 20.1713 10.142 20.582C9.262 20.978 8.14733 21.176 6.798 21.176ZM21.8921 9.23C22.8454 9.23 23.6814 9.41333 24.4001 9.78C25.1334 10.1467 25.7054 10.704 26.1161 11.452C26.5267 12.2 26.7321 13.146 26.7321 14.29V21H24.6201V14.532C24.6201 13.4027 24.3414 12.552 23.7841 11.98C23.2414 11.408 22.4714 11.122 21.4741 11.122C20.7261 11.122 20.0734 11.2687 19.5161 11.562C18.9587 11.8553 18.5261 12.288 18.2181 12.86C17.9247 13.432 17.7781 14.1433 17.7781 14.994V21H15.6661V4.676H17.7781V12.486L17.3601 11.65C17.7414 10.8873 18.3281 10.2933 19.1201 9.868C19.9121 9.44267 20.8361 9.23 21.8921 9.23ZM30.6407 21V9.34H32.7527V21H30.6407ZM31.6967 7.096C31.286 7.096 30.9413 6.964 30.6627 6.7C30.3987 6.436 30.2667 6.11333 30.2667 5.732C30.2667 5.336 30.3987 5.006 30.6627 4.742C30.9413 4.478 31.286 4.346 31.6967 4.346C32.1073 4.346 32.4447 4.478 32.7087 4.742C32.9873 4.99133 33.1267 5.30667 33.1267 5.688C33.1267 6.084 32.9947 6.42133 32.7307 6.7C32.4667 6.964 32.122 7.096 31.6967 7.096ZM42.9672 21.132C41.9992 21.132 41.1119 20.912 40.3052 20.472C39.5132 20.0173 38.8752 19.35 38.3912 18.47C37.9219 17.59 37.6872 16.49 37.6872 15.17C37.6872 13.85 37.9145 12.75 38.3692 11.87C38.8385 10.99 39.4692 10.33 40.2612 9.89C41.0679 9.45 41.9699 9.23 42.9672 9.23C44.1112 9.23 45.1232 9.47933 46.0032 9.978C46.8832 10.4767 47.5799 11.1733 48.0932 12.068C48.6065 12.948 48.8632 13.982 48.8632 15.17C48.8632 16.358 48.6065 17.3993 48.0932 18.294C47.5799 19.1887 46.8832 19.8853 46.0032 20.384C45.1232 20.8827 44.1112 21.132 42.9672 21.132ZM36.7852 25.268V9.34H38.8092V12.486L38.6772 15.192L38.8972 17.898V25.268H36.7852ZM42.7912 19.284C43.5392 19.284 44.2065 19.1153 44.7932 18.778C45.3945 18.4407 45.8639 17.964 46.2012 17.348C46.5532 16.7173 46.7292 15.9913 46.7292 15.17C46.7292 14.334 46.5532 13.6153 46.2012 13.014C45.8639 12.398 45.3945 11.9213 44.7932 11.584C44.2065 11.2467 43.5392 11.078 42.7912 11.078C42.0579 11.078 41.3905 11.2467 40.7892 11.584C40.2025 11.9213 39.7332 12.398 39.3812 13.014C39.0439 13.6153 38.8752 14.334 38.8752 15.17C38.8752 15.9913 39.0439 16.7173 39.3812 17.348C39.7332 17.964 40.2025 18.4407 40.7892 18.778C41.3905 19.1153 42.0579 19.284 42.7912 19.284ZM57.9633 21.132C56.9953 21.132 56.108 20.912 55.3013 20.472C54.5093 20.0173 53.8713 19.35 53.3873 18.47C52.918 17.59 52.6833 16.49 52.6833 15.17C52.6833 13.85 52.9106 12.75 53.3653 11.87C53.8346 10.99 54.4653 10.33 55.2573 9.89C56.064 9.45 56.966 9.23 57.9633 9.23C59.1073 9.23 60.1193 9.47933 60.9993 9.978C61.8793 10.4767 62.576 11.1733 63.0893 12.068C63.6026 12.948 63.8593 13.982 63.8593 15.17C63.8593 16.358 63.6026 17.3993 63.0893 18.294C62.576 19.1887 61.8793 19.8853 60.9993 20.384C60.1193 20.8827 59.1073 21.132 57.9633 21.132ZM51.7813 25.268V9.34H53.8053V12.486L53.6733 15.192L53.8933 17.898V25.268H51.7813ZM57.7873 19.284C58.5353 19.284 59.2026 19.1153 59.7893 18.778C60.3906 18.4407 60.86 17.964 61.1973 17.348C61.5493 16.7173 61.7253 15.9913 61.7253 15.17C61.7253 14.334 61.5493 13.6153 61.1973 13.014C60.86 12.398 60.3906 11.9213 59.7893 11.584C59.2026 11.2467 58.5353 11.078 57.7873 11.078C57.054 11.078 56.3866 11.2467 55.7853 11.584C55.1986 11.9213 54.7293 12.398 54.3773 13.014C54.04 13.6153 53.8713 14.334 53.8713 15.17C53.8713 15.9913 54.04 16.7173 54.3773 17.348C54.7293 17.964 55.1986 18.4407 55.7853 18.778C56.3866 19.1153 57.054 19.284 57.7873 19.284ZM66.7774 21V9.34H68.8894V21H66.7774ZM67.8334 7.096C67.4227 7.096 67.0781 6.964 66.7994 6.7C66.5354 6.436 66.4034 6.11333 66.4034 5.732C66.4034 5.336 66.5354 5.006 66.7994 4.742C67.0781 4.478 67.4227 4.346 67.8334 4.346C68.2441 4.346 68.5814 4.478 68.8454 4.742C69.1241 4.99133 69.2634 5.30667 69.2634 5.688C69.2634 6.084 69.1314 6.42133 68.8674 6.7C68.6034 6.964 68.2587 7.096 67.8334 7.096ZM79.1479 9.23C80.1013 9.23 80.9373 9.41333 81.6559 9.78C82.3893 10.1467 82.9613 10.704 83.3719 11.452C83.7826 12.2 83.9879 13.146 83.9879 14.29V21H81.8759V14.532C81.8759 13.4027 81.5973 12.552 81.0399 11.98C80.4973 11.408 79.7273 11.122 78.7299 11.122C77.9819 11.122 77.3293 11.2687 76.7719 11.562C76.2146 11.8553 75.7819 12.288 75.4739 12.86C75.1806 13.432 75.0339 14.1433 75.0339 14.994V21H72.9219V9.34H74.9459V12.486L74.6159 11.65C74.9973 10.8873 75.5839 10.2933 76.3759 9.868C77.1679 9.44267 78.0919 9.23 79.1479 9.23ZM93.0005 25.4C91.9299 25.4 90.8885 25.246 89.8765 24.938C88.8792 24.6447 88.0652 24.2193 87.4345 23.662L88.4465 22.034C88.9892 22.5033 89.6565 22.87 90.4485 23.134C91.2405 23.4127 92.0692 23.552 92.9345 23.552C94.3132 23.552 95.3252 23.2293 95.9705 22.584C96.6159 21.9387 96.9385 20.956 96.9385 19.636V17.172L97.1585 14.862L97.0485 12.53V9.34H99.0505V19.416C99.0505 21.4693 98.5372 22.98 97.5105 23.948C96.4839 24.916 94.9805 25.4 93.0005 25.4ZM92.7365 20.516C91.6072 20.516 90.5952 20.2813 89.7005 19.812C88.8205 19.328 88.1165 18.6607 87.5885 17.81C87.0752 16.9593 86.8185 15.9767 86.8185 14.862C86.8185 13.7327 87.0752 12.75 87.5885 11.914C88.1165 11.0633 88.8205 10.4033 89.7005 9.934C90.5952 9.46467 91.6072 9.23 92.7365 9.23C93.7339 9.23 94.6432 9.43533 95.4645 9.846C96.2859 10.242 96.9385 10.858 97.4225 11.694C97.9212 12.53 98.1705 13.586 98.1705 14.862C98.1705 16.1233 97.9212 17.172 97.4225 18.008C96.9385 18.844 96.2859 19.4747 95.4645 19.9C94.6432 20.3107 93.7339 20.516 92.7365 20.516ZM92.9785 18.668C93.7559 18.668 94.4452 18.5067 95.0465 18.184C95.6479 17.8613 96.1172 17.414 96.4545 16.842C96.8065 16.27 96.9825 15.61 96.9825 14.862C96.9825 14.114 96.8065 13.454 96.4545 12.882C96.1172 12.31 95.6479 11.87 95.0465 11.562C94.4452 11.2393 93.7559 11.078 92.9785 11.078C92.2012 11.078 91.5045 11.2393 90.8885 11.562C90.2872 11.87 89.8105 12.31 89.4585 12.882C89.1212 13.454 88.9525 14.114 88.9525 14.862C88.9525 15.61 89.1212 16.27 89.4585 16.842C89.8105 17.414 90.2872 17.8613 90.8885 18.184C91.5045 18.5067 92.2012 18.668 92.9785 18.668Z" fill="#358C1D"/>
<path d="M217.31 21V5.6H223.8C225.443 5.6 226.887 5.92267 228.134 6.568C229.395 7.21333 230.371 8.11533 231.06 9.274C231.764 10.4327 232.116 11.7747 232.116 13.3C232.116 14.8253 231.764 16.1673 231.06 17.326C230.371 18.4847 229.395 19.3867 228.134 20.032C226.887 20.6773 225.443 21 223.8 21H217.31ZM219.51 19.086H223.668C224.944 19.086 226.044 18.844 226.968 18.36C227.907 17.876 228.633 17.2013 229.146 16.336C229.659 15.456 229.916 14.444 229.916 13.3C229.916 12.1413 229.659 11.1293 229.146 10.264C228.633 9.39867 227.907 8.724 226.968 8.24C226.044 7.756 224.944 7.514 223.668 7.514H219.51V19.086ZM240.37 21.132C239.123 21.132 238.023 20.8753 237.07 20.362C236.131 19.8487 235.398 19.1447 234.87 18.25C234.356 17.3553 234.1 16.3287 234.1 15.17C234.1 14.0113 234.349 12.9847 234.848 12.09C235.361 11.1953 236.058 10.4987 236.938 10C237.832 9.48667 238.837 9.23 239.952 9.23C241.081 9.23 242.078 9.47933 242.944 9.978C243.809 10.4767 244.484 11.1807 244.968 12.09C245.466 12.9847 245.716 14.0333 245.716 15.236C245.716 15.324 245.708 15.4267 245.694 15.544C245.694 15.6613 245.686 15.7713 245.672 15.874H235.75V14.356H244.572L243.714 14.884C243.728 14.136 243.574 13.4687 243.252 12.882C242.929 12.2953 242.482 11.8407 241.91 11.518C241.352 11.1807 240.7 11.012 239.952 11.012C239.218 11.012 238.566 11.1807 237.994 11.518C237.422 11.8407 236.974 12.3027 236.652 12.904C236.329 13.4907 236.168 14.1653 236.168 14.928V15.28C236.168 16.0573 236.344 16.754 236.696 17.37C237.062 17.9713 237.568 18.4407 238.214 18.778C238.859 19.1153 239.6 19.284 240.436 19.284C241.125 19.284 241.748 19.1667 242.306 18.932C242.878 18.6973 243.376 18.3453 243.802 17.876L244.968 19.24C244.44 19.856 243.78 20.3253 242.988 20.648C242.21 20.9707 241.338 21.132 240.37 21.132ZM248.648 21V4.676H250.76V21H248.648ZM254.793 21V9.34H256.905V21H254.793ZM255.849 7.096C255.438 7.096 255.094 6.964 254.815 6.7C254.551 6.436 254.419 6.11333 254.419 5.732C254.419 5.336 254.551 5.006 254.815 4.742C255.094 4.478 255.438 4.346 255.849 4.346C256.26 4.346 256.597 4.478 256.861 4.742C257.14 4.99133 257.279 5.30667 257.279 5.688C257.279 6.084 257.147 6.42133 256.883 6.7C256.619 6.964 256.274 7.096 255.849 7.096ZM263.996 21L258.892 9.34H261.092L265.624 19.9H264.568L269.188 9.34H271.256L266.152 21H263.996ZM278.096 21.132C276.85 21.132 275.75 20.8753 274.796 20.362C273.858 19.8487 273.124 19.1447 272.596 18.25C272.083 17.3553 271.826 16.3287 271.826 15.17C271.826 14.0113 272.076 12.9847 272.574 12.09C273.088 11.1953 273.784 10.4987 274.664 10C275.559 9.48667 276.564 9.23 277.678 9.23C278.808 9.23 279.805 9.47933 280.67 9.978C281.536 10.4767 282.21 11.1807 282.694 12.09C283.193 12.9847 283.442 14.0333 283.442 15.236C283.442 15.324 283.435 15.4267 283.42 15.544C283.42 15.6613 283.413 15.7713 283.398 15.874H273.476V14.356H282.298L281.44 14.884C281.455 14.136 281.301 13.4687 280.978 12.882C280.656 12.2953 280.208 11.8407 279.636 11.518C279.079 11.1807 278.426 11.012 277.678 11.012C276.945 11.012 276.292 11.1807 275.72 11.518C275.148 11.8407 274.701 12.3027 274.378 12.904C274.056 13.4907 273.894 14.1653 273.894 14.928V15.28C273.894 16.0573 274.07 16.754 274.422 17.37C274.789 17.9713 275.295 18.4407 275.94 18.778C276.586 19.1153 277.326 19.284 278.162 19.284C278.852 19.284 279.475 19.1667 280.032 18.932C280.604 18.6973 281.103 18.3453 281.528 17.876L282.694 19.24C282.166 19.856 281.506 20.3253 280.714 20.648C279.937 20.9707 279.064 21.132 278.096 21.132ZM286.375 21V9.34H288.399V12.508L288.201 11.716C288.524 10.9093 289.066 10.2933 289.829 9.868C290.592 9.44267 291.53 9.23 292.645 9.23V11.276C292.557 11.2613 292.469 11.254 292.381 11.254C292.308 11.254 292.234 11.254 292.161 11.254C291.032 11.254 290.137 11.5913 289.477 12.266C288.817 12.9407 288.487 13.916 288.487 15.192V21H286.375ZM296.227 25.4C295.669 25.4 295.127 25.3047 294.599 25.114C294.071 24.938 293.616 24.674 293.235 24.322L294.137 22.738C294.43 23.0167 294.753 23.2293 295.105 23.376C295.457 23.5227 295.831 23.596 296.227 23.596C296.74 23.596 297.165 23.464 297.503 23.2C297.84 22.936 298.155 22.4667 298.449 21.792L299.175 20.186L299.395 19.922L303.971 9.34H306.039L300.385 22.166C300.047 22.9873 299.666 23.6327 299.241 24.102C298.83 24.5713 298.375 24.9013 297.877 25.092C297.378 25.2973 296.828 25.4 296.227 25.4ZM298.999 21.374L293.675 9.34H295.875L300.407 19.724L298.999 21.374Z" fill="#358C1D"/>
<path d="M424.31 21V5.6H430.316C431.665 5.6 432.817 5.81267 433.77 6.238C434.723 6.66333 435.457 7.27933 435.97 8.086C436.483 8.89267 436.74 9.85333 436.74 10.968C436.74 12.0827 436.483 13.0433 435.97 13.85C435.457 14.642 434.723 15.258 433.77 15.698C432.817 16.1233 431.665 16.336 430.316 16.336H425.52L426.51 15.302V21H424.31ZM426.51 15.522L425.52 14.422H430.25C431.658 14.422 432.721 14.1213 433.44 13.52C434.173 12.9187 434.54 12.068 434.54 10.968C434.54 9.868 434.173 9.01733 433.44 8.416C432.721 7.81467 431.658 7.514 430.25 7.514H425.52L426.51 6.414V15.522ZM446.795 21V18.536L446.685 18.074V13.872C446.685 12.9773 446.421 12.288 445.893 11.804C445.379 11.3053 444.602 11.056 443.561 11.056C442.871 11.056 442.197 11.1733 441.537 11.408C440.877 11.628 440.319 11.9287 439.865 12.31L438.985 10.726C439.586 10.242 440.305 9.87533 441.141 9.626C441.991 9.362 442.879 9.23 443.803 9.23C445.401 9.23 446.633 9.61867 447.499 10.396C448.364 11.1733 448.797 12.3613 448.797 13.96V21H446.795ZM442.967 21.132C442.101 21.132 441.339 20.9853 440.679 20.692C440.033 20.3987 439.535 19.9953 439.183 19.482C438.831 18.954 438.655 18.36 438.655 17.7C438.655 17.0693 438.801 16.4973 439.095 15.984C439.403 15.4707 439.894 15.06 440.569 14.752C441.258 14.444 442.182 14.29 443.341 14.29H447.037V15.808H443.429C442.373 15.808 441.661 15.984 441.295 16.336C440.928 16.688 440.745 17.1133 440.745 17.612C440.745 18.184 440.972 18.646 441.427 18.998C441.881 19.3353 442.512 19.504 443.319 19.504C444.111 19.504 444.8 19.328 445.387 18.976C445.988 18.624 446.421 18.1107 446.685 17.436L447.103 18.888C446.824 19.5773 446.333 20.1273 445.629 20.538C444.925 20.934 444.037 21.132 442.967 21.132ZM452.996 25.4C452.439 25.4 451.896 25.3047 451.368 25.114C450.84 24.938 450.386 24.674 450.004 24.322L450.906 22.738C451.2 23.0167 451.522 23.2293 451.874 23.376C452.226 23.5227 452.6 23.596 452.996 23.596C453.51 23.596 453.935 23.464 454.272 23.2C454.61 22.936 454.925 22.4667 455.218 21.792L455.944 20.186L456.164 19.922L460.74 9.34H462.808L457.154 22.166C456.817 22.9873 456.436 23.6327 456.01 24.102C455.6 24.5713 455.145 24.9013 454.646 25.092C454.148 25.2973 453.598 25.4 452.996 25.4ZM455.768 21.374L450.444 9.34H452.644L457.176 19.724L455.768 21.374ZM479.365 9.23C480.304 9.23 481.133 9.41333 481.851 9.78C482.57 10.1467 483.127 10.704 483.523 11.452C483.934 12.2 484.139 13.146 484.139 14.29V21H482.027V14.532C482.027 13.4027 481.763 12.552 481.235 11.98C480.707 11.408 479.967 11.122 479.013 11.122C478.309 11.122 477.693 11.2687 477.165 11.562C476.637 11.8553 476.227 12.288 475.933 12.86C475.655 13.432 475.515 14.1433 475.515 14.994V21H473.403V14.532C473.403 13.4027 473.139 12.552 472.611 11.98C472.098 11.408 471.357 11.122 470.389 11.122C469.7 11.122 469.091 11.2687 468.563 11.562C468.035 11.8553 467.625 12.288 467.331 12.86C467.038 13.432 466.891 14.1433 466.891 14.994V21H464.779V9.34H466.803V12.442L466.473 11.65C466.84 10.8873 467.405 10.2933 468.167 9.868C468.93 9.44267 469.817 9.23 470.829 9.23C471.944 9.23 472.905 9.50867 473.711 10.066C474.518 10.6087 475.046 11.4373 475.295 12.552L474.437 12.2C474.789 11.3053 475.405 10.5867 476.285 10.044C477.165 9.50133 478.192 9.23 479.365 9.23ZM493.217 21.132C491.971 21.132 490.871 20.8753 489.917 20.362C488.979 19.8487 488.245 19.1447 487.717 18.25C487.204 17.3553 486.947 16.3287 486.947 15.17C486.947 14.0113 487.197 12.9847 487.695 12.09C488.209 11.1953 488.905 10.4987 489.785 10C490.68 9.48667 491.685 9.23 492.799 9.23C493.929 9.23 494.926 9.47933 495.791 9.978C496.657 10.4767 497.331 11.1807 497.815 12.09C498.314 12.9847 498.563 14.0333 498.563 15.236C498.563 15.324 498.556 15.4267 498.541 15.544C498.541 15.6613 498.534 15.7713 498.519 15.874H488.597V14.356H497.419L496.561 14.884C496.576 14.136 496.422 13.4687 496.099 12.882C495.777 12.2953 495.329 11.8407 494.757 11.518C494.2 11.1807 493.547 11.012 492.799 11.012C492.066 11.012 491.413 11.1807 490.841 11.518C490.269 11.8407 489.822 12.3027 489.499 12.904C489.177 13.4907 489.015 14.1653 489.015 14.928V15.28C489.015 16.0573 489.191 16.754 489.543 17.37C489.91 17.9713 490.416 18.4407 491.061 18.778C491.707 19.1153 492.447 19.284 493.283 19.284C493.973 19.284 494.596 19.1667 495.153 18.932C495.725 18.6973 496.224 18.3453 496.649 17.876L497.815 19.24C497.287 19.856 496.627 20.3253 495.835 20.648C495.058 20.9707 494.185 21.132 493.217 21.132ZM507.722 9.23C508.675 9.23 509.511 9.41333 510.23 9.78C510.963 10.1467 511.535 10.704 511.946 11.452C512.357 12.2 512.562 13.146 512.562 14.29V21H510.45V14.532C510.45 13.4027 510.171 12.552 509.614 11.98C509.071 11.408 508.301 11.122 507.304 11.122C506.556 11.122 505.903 11.2687 505.346 11.562C504.789 11.8553 504.356 12.288 504.048 12.86C503.755 13.432 503.608 14.1433 503.608 14.994V21H501.496V9.34H503.52V12.486L503.19 11.65C503.571 10.8873 504.158 10.2933 504.95 9.868C505.742 9.44267 506.666 9.23 507.722 9.23ZM520.475 21.132C519.301 21.132 518.392 20.8167 517.747 20.186C517.101 19.5553 516.779 18.6533 516.779 17.48V6.788H518.891V17.392C518.891 18.0227 519.045 18.5067 519.353 18.844C519.675 19.1813 520.13 19.35 520.717 19.35C521.377 19.35 521.927 19.1667 522.367 18.8L523.027 20.318C522.704 20.5967 522.315 20.802 521.861 20.934C521.421 21.066 520.959 21.132 520.475 21.132ZM514.799 11.078V9.34H522.235V11.078H514.799Z" fill="#585858" fill-opacity="0.6"/>
<line x1="317" y1="14.5" x2="342" y2="14.5" stroke="#9B9B9B" stroke-opacity="0.5"/>
<line x1="388" y1="14.5" x2="413" y2="14.5" stroke="#9B9B9B" stroke-opacity="0.5"/>
<g clip-path="url(#clip0_799_735)">
<path d="M363 24C357.477 24 353 19.523 353 14C353 8.477 357.477 4 363 4C368.523 4 373 8.477 373 14C373 19.523 368.523 24 363 24ZM362.003 18L369.073 10.929L367.659 9.515L362.003 15.172L359.174 12.343L357.76 13.757L362.003 18Z" fill="#9B9B9B" fill-opacity="0.5"/>
</g>
<line x1="110" y1="14.5" x2="135" y2="14.5" stroke="#7BD063"/>
<line x1="181" y1="14.5" x2="206" y2="14.5" stroke="#7BD063"/>
<g clip-path="url(#clip1_799_735)">
<path d="M156 24C150.477 24 146 19.523 146 14C146 8.477 150.477 4 156 4C161.523 4 166 8.477 166 14C166 19.523 161.523 24 156 24ZM155.003 18L162.073 10.929L160.659 9.515L155.003 15.172L152.174 12.343L150.76 13.757L155.003 18Z" fill="#7BD063"/>
</g>
<defs>
<clipPath id="clip0_799_735">
<rect width="24" height="24" fill="white" transform="translate(351 2)"/>
</clipPath>
<clipPath id="clip1_799_735">
<rect width="24" height="24" fill="white" transform="translate(144 2)"/>
</clipPath>
</defs>
</svg>
